<?xml version="1.0" standalone="no"?>
<!DOCTYPE svg PUBLIC "-//W3C//DTD SVG 20010904//EN"
 "http://www.w3.org/TR/2001/REC-SVG-20010904/DTD/svg10.dtd">
<svg version="1.0" xmlns="http://www.w3.org/2000/svg"
 width="676.000000pt" height="369.000000pt" viewBox="0 0 676.000000 369.000000"
 preserveAspectRatio="xMidYMid meet">

<g transform="translate(0.000000,369.000000) scale(0.100000,-0.100000)"
fill="#000000" stroke="none">
<path d="M4542 3478 c-33 -62 -85 -160 -117 -218 -31 -58 -85 -159 -120 -225
-35 -67 -79 -146 -97 -176 -18 -31 -48 -88 -67 -127 -19 -40 -38 -72 -42 -72
-4 0 -28 34 -54 76 -172 283 -472 539 -771 657 -200 78 -355 107 -584 107
-372 0 -658 -98 -961 -327 -38 -29 -72 -53 -75 -53 -6 0 121 244 190 365 25
44 46 83 46 87 0 5 -385 8 -855 8 l-855 0 0 -45 0 -45 775 0 c463 0 775 -4
775 -9 0 -9 -28 -63 -227 -436 -72 -134 -130 -240 -205 -375 -14 -25 -64 -119
-112 -210 -48 -91 -96 -181 -107 -200 -11 -19 -58 -109 -106 -200 -47 -91 -98
-185 -113 -210 -15 -25 -58 -103 -96 -175 -37 -71 -90 -170 -117 -220 -27 -49
-91 -169 -142 -265 -51 -96 -138 -257 -192 -357 -122 -226 -187 -348 -235
-436 -20 -38 -41 -74 -47 -80 -6 -6 -11 -30 -11 -54 l0 -43 865 0 865 0 0 45
0 45 -800 0 c-633 0 -800 3 -800 13 0 6 54 113 121 237 67 124 173 322 236
440 158 294 306 569 390 725 38 72 96 180 128 240 68 130 80 145 71 90 -4 -22
-9 -97 -13 -166 -15 -312 83 -698 242 -952 179 -286 413 -501 688 -632 138
-66 235 -98 380 -127 159 -32 454 -32 604 0 494 106 900 423 1121 874 106 217
182 498 182 677 l0 51 204 0 205 0 6 -42 c6 -43 21 -194 117 -1150 29 -291 56
-528 59 -528 8 0 179 312 389 710 51 96 121 225 155 285 33 61 76 139 95 175
46 91 171 323 180 335 4 6 44 82 90 170 46 88 93 176 105 195 12 19 59 107
105 195 46 88 102 194 125 235 52 92 82 148 170 315 37 72 82 155 100 185 18
30 65 118 105 195 41 77 102 192 137 255 35 63 63 118 63 123 0 8 -60 47 -72
47 -3 0 -37 -57 -74 -127 -37 -71 -108 -204 -159 -298 -51 -93 -123 -228 -160
-300 -38 -71 -76 -141 -85 -155 -9 -14 -61 -110 -115 -215 -54 -104 -106 -201
-115 -215 -10 -14 -68 -122 -130 -240 -62 -118 -127 -240 -145 -270 -18 -30
-70 -127 -115 -215 -46 -88 -90 -171 -100 -185 -9 -14 -47 -83 -85 -155 -101
-195 -144 -273 -185 -345 -20 -36 -76 -140 -124 -232 -48 -93 -91 -168 -95
-168 -4 0 -13 57 -19 128 -7 70 -21 217 -32 327 -19 186 -28 280 -65 640 -8
77 -24 232 -35 345 -51 511 -91 895 -95 914 -4 18 -24 211 -75 726 -5 52 -10
107 -10 123 0 15 -4 27 -9 27 -5 0 -36 -51 -69 -112z m-1607 -84 c343 -57 689
-260 907 -533 64 -79 187 -268 194 -297 4 -15 -5 -42 -24 -76 -17 -29 -65
-118 -108 -198 -42 -80 -112 -208 -154 -285 -42 -77 -112 -207 -155 -290 -43
-82 -82 -156 -88 -163 -5 -7 -60 -108 -122 -225 -62 -116 -143 -268 -180 -337
-147 -271 -275 -510 -330 -615 -32 -60 -62 -116 -68 -123 -12 -15 -151 -16
-287 -2 -250 26 -505 131 -731 300 -88 66 -264 249 -321 335 -174 264 -260
503 -289 814 -19 195 11 443 76 647 33 102 130 293 210 414 81 122 261 304
381 385 344 231 702 313 1089 249z m1655 -444 c42 -427 46 -470 69 -700 11
-107 22 -229 26 -270 4 -41 9 -83 11 -93 5 -16 -7 -17 -193 -15 l-198 3 -2 35
c-12 170 -47 345 -98 485 -63 172 -62 150 -15 235 23 41 62 111 85 155 128
237 192 358 229 427 23 42 44 74 47 70 4 -4 21 -153 39 -332z m-465 -601 c14
-45 34 -123 45 -173 21 -96 42 -284 34 -298 -6 -9 -414 -11 -414 -2 0 16 293
554 302 554 4 0 19 -37 33 -81z m80 -626 c-13 -137 -17 -164 -41 -269 -71
-322 -229 -592 -486 -830 -135 -126 -342 -249 -518 -307 -106 -36 -227 -64
-235 -55 -4 4 79 166 124 243 10 17 49 89 86 160 37 72 84 159 105 195 20 36
85 157 144 268 59 112 119 222 133 245 14 22 31 52 37 66 6 14 49 97 94 184
l84 157 239 0 239 0 -5 -57z"/>
</g>
</svg>
