<?xml version="1.0" standalone="no"?>
<!DOCTYPE svg PUBLIC "-//W3C//DTD SVG 20010904//EN"
 "http://www.w3.org/TR/2001/REC-SVG-20010904/DTD/svg10.dtd">
<svg version="1.0" xmlns="http://www.w3.org/2000/svg"
 width="510.000000pt" height="600.000000pt" viewBox="0 0 510.000000 600.000000"
 preserveAspectRatio="xMidYMid meet">
<g transform="translate(0.000000,600.000000) scale(0.100000,-0.100000)"
fill="#000000" stroke="none">
<path d="M910 5980 l-35 -5 -2 -60 c-1 -56 -1 -57 7 -20 5 22 6 48 3 58 -4 17
17 18 499 13 867 -10 3540 -14 3398 -6 -114 7 -1173 14 -3380 23 -250 1 -471
0 -490 -3z"/>
<path d="M785 5967 c-12 -10 -15 -19 -9 -28 4 -8 11 -32 14 -53 3 -22 11 -41
18 -44 9 -3 12 15 12 67 0 74 -4 80 -35 58z"/>
<path d="M350 5960 c0 -10 288 -3 299 6 2 2 -64 4 -147 4 -98 0 -152 -4 -152
-10z"/>
<path d="M673 5915 c0 -33 2 -45 4 -27 2 18 2 45 0 60 -2 15 -4 0 -4 -33z"/>
<path d="M4930 5961 c-8 -6 -10 -11 -5 -12 102 -9 148 -8 138 2 -16 16 -114
23 -133 10z"/>
<path d="M708 5953 c22 -4 22 -5 26 -88 1 -18 -7 -21 -74 -26 -85 -7 -138 -17
-144 -28 -3 -4 32 -1 77 6 45 6 101 12 124 12 l43 1 -6 48 c-8 74 -12 82 -42
81 -24 -2 -24 -2 -4 -6z"/>
<path d="M5071 5733 c4 -109 10 -751 14 -1428 4 -676 10 -1232 13 -1235 7 -8
-6 2823 -13 2843 -17 42 -20 4 -14 -180z"/>
<path d="M837 5834 c-4 -4 -67 -14 -140 -20 -158 -15 -205 -27 -217 -57 -11
-29 -12 -10 -1 28 8 29 7 30 -25 32 l-34 3 0 -79 c0 -54 4 -80 13 -83 6 -2 38
-2 70 0 55 4 57 5 57 33 0 16 -2 29 -5 29 -12 0 -55 -24 -55 -32 0 -15 -18 -8
-24 9 -4 9 -1 23 7 30 14 14 179 42 251 43 32 0 36 2 27 14 -9 11 -8 15 5 20
22 9 24 8 24 -9 0 -8 7 -15 15 -15 8 0 15 7 15 16 0 15 10 16 77 10 42 -3 89
-6 105 -6 22 0 28 -5 28 -21 0 -19 -4 -21 -32 -15 -68 13 -168 19 -168 9 0 -6
-45 -13 -104 -17 -57 -4 -117 -11 -133 -16 -19 -7 -5 -8 47 -4 41 3 79 7 84 8
5 0 10 -54 12 -120 l3 -121 -77 -6 c-79 -6 -187 -26 -179 -33 2 -3 26 0 53 5
27 6 88 13 136 16 l88 7 -3 126 c-2 118 -1 127 17 127 17 0 18 -9 17 -127 -2
-110 0 -128 13 -128 16 0 21 69 16 213 l-2 48 84 -7 c46 -3 86 -8 91 -11 4 -2
22 1 41 8 30 11 38 10 62 -6 23 -15 25 -19 11 -26 -9 -6 -26 -5 -42 1 -35 13
-35 13 -35 -9 0 -15 10 -20 51 -25 28 -4 53 -6 54 -4 2 2 5 38 7 81 3 69 2 77
-15 77 -13 0 -17 -5 -13 -18 5 -15 1 -17 -37 -13 l-42 5 35 6 c27 4 31 7 17
13 -28 11 -241 21 -250 11z m-378 -116 c0 -29 -3 -47 -6 -40 -2 6 -9 10 -14 6
-5 -3 -9 22 -9 56 0 55 2 60 15 46 10 -9 15 -33 14 -68z m277 73 c-3 -4 -33
-11 -66 -14 -33 -4 -72 -10 -85 -13 -19 -5 -25 -2 -25 9 0 18 26 23 118 26 35
0 61 -3 58 -8z"/>
<path d="M674 5620 c0 -63 1 -89 3 -57 2 31 2 83 0 115 -2 31 -3 5 -3 -58z"/>
<path d="M871 5635 c-2 -55 -3 -109 -2 -120 3 -31 -50 -45 -166 -45 -114 0
-166 -8 -156 -23 4 -6 -2 -8 -17 -4 -12 3 -33 2 -46 -4 -19 -6 -26 -5 -30 5
-3 8 -12 12 -20 9 -10 -4 -14 -24 -14 -78 0 -41 4 -76 8 -79 4 -2 36 -2 70 1
l62 6 0 34 c0 30 -3 34 -17 28 -10 -4 -37 -10 -60 -12 -33 -4 -43 -10 -46 -27
-2 -11 -5 7 -6 42 -1 56 1 62 14 48 8 -8 15 -19 15 -24 0 -5 21 -4 50 2 42 8
50 14 50 32 0 25 30 34 122 34 56 0 59 -1 56 -22 -3 -21 -9 -23 -78 -26 -41
-2 -79 -7 -84 -12 -7 -7 -1 -10 15 -11 l24 -1 -25 -8 c-17 -6 1 -8 58 -7 l83
1 2 -132 3 -132 -73 -1 c-40 -1 -77 -3 -83 -4 -5 -1 -20 -3 -32 -4 -12 0 -19
-4 -15 -7 3 -3 55 -3 115 1 l110 7 -1 137 c-2 122 0 136 16 139 15 3 17 -8 17
-132 0 -114 2 -136 15 -136 13 0 15 22 15 136 0 124 1 135 18 130 9 -2 57 -8
107 -11 80 -6 88 -6 76 8 -7 9 -31 18 -54 21 -112 14 -131 15 -136 7 -3 -5
-52 -11 -108 -13 -57 -2 -99 0 -95 4 4 3 37 8 75 10 62 2 84 11 55 20 -16 6
-2 38 17 38 9 0 15 -9 15 -25 0 -16 6 -25 15 -25 9 0 15 9 15 25 0 34 46 36
53 3 l4 -23 2 22 c1 19 6 22 29 18 15 -2 48 -7 75 -10 44 -6 47 -8 47 -36 0
-21 5 -29 18 -29 25 0 66 -30 55 -41 -5 -5 -22 -5 -38 -1 -23 7 -34 4 -47 -9
-10 -11 -13 -21 -8 -24 6 -4 10 0 10 7 0 8 3 9 8 3 4 -5 31 -11 60 -12 l52 -2
0 80 c0 78 -1 80 -22 77 -13 -2 -22 -9 -20 -16 1 -9 -6 -10 -25 -6 -37 9 -41
14 -12 15 23 0 23 0 3 9 -12 5 -58 14 -103 20 l-80 12 -4 122 -3 121 -3 -100z"/>
<path d="M5 5380 c-4 -6 43 -10 134 -10 87 0 141 4 141 10 0 6 -51 10 -134 10
-79 0 -137 -4 -141 -10z"/>
<path d="M1300 5381 c0 -8 295 -11 1003 -11 551 0 1365 -3 1810 -7 606 -4 807
-3 807 5 0 9 -152 12 -592 13 -326 0 -1141 2 -1810 5 -864 4 -1218 2 -1218 -5z"/>
<path d="M674 5240 c0 -69 1 -97 3 -62 2 34 2 90 0 125 -2 34 -3 6 -3 -63z"/>
<path d="M874 5240 c0 -69 1 -97 3 -62 2 34 2 90 0 125 -2 34 -3 6 -3 -63z"/>
<path d="M40 5150 c-31 -5 -8 -7 75 -8 66 0 131 4 145 8 31 10 -156 10 -220 0z"/>
<path d="M1300 5151 c0 -8 410 -11 1558 -11 856 0 1671 -3 1810 -7 185 -4 252
-3 252 6 0 8 -361 11 -1397 11 -769 0 -1584 3 -1810 7 -303 4 -413 3 -413 -6z"/>
<path d="M865 5101 c-3 -2 -71 -9 -152 -16 -140 -12 -143 -12 -60 -14 80 -1
87 -3 87 -21 0 -18 -7 -20 -59 -20 -32 0 -73 -3 -90 -6 -28 -6 -31 -4 -31 20
0 22 -4 26 -22 22 -65 -13 -97 -16 -102 -7 -3 5 0 11 6 14 7 2 10 8 6 12 -10
11 -28 -4 -28 -24 0 -18 30 -52 30 -35 0 5 5 2 10 -7 8 -14 17 -15 51 -8 22 5
45 7 50 4 5 -4 58 -3 117 1 59 4 99 10 90 12 -22 4 -19 42 3 42 10 0 19 -9 21
-22 5 -32 28 -35 28 -4 0 26 1 26 78 26 94 0 119 -6 125 -31 7 -26 1 -28 -76
-22 -59 5 -67 8 -68 27 -1 20 -1 20 -7 1 -4 -11 -16 -22 -27 -23 -11 -2 -22
-8 -23 -13 -2 -5 -18 -7 -35 -4 -18 3 -72 1 -122 -4 l-90 -8 83 -2 82 -1 0
-130 0 -130 -77 -2 c-43 -1 -96 -3 -118 -4 -22 -1 -59 -2 -82 -3 -41 -1 -43
-3 -43 -31 0 -16 5 -30 10 -30 6 0 10 -5 10 -11 0 -5 -4 -7 -10 -4 -6 4 -10
-11 -10 -38 l0 -45 70 1 c39 1 70 3 71 7 0 3 2 13 4 22 3 19 0 19 -84 -3 -19
-4 -38 -6 -43 -3 -12 7 -10 34 3 34 5 0 8 4 5 8 -2 4 -1 14 5 22 7 13 9 13 9
-1 0 -13 18 -16 121 -16 66 -1 123 -4 126 -7 4 -3 -24 -6 -60 -6 -37 0 -67 -4
-67 -9 0 -5 36 -6 80 -4 l80 5 0 -136 c0 -75 4 -136 9 -136 5 0 8 60 8 135 -2
123 0 135 16 135 15 0 17 -13 17 -135 0 -113 2 -135 15 -135 13 0 15 22 15
135 l0 135 54 0 c86 0 146 -11 146 -27 0 -8 -4 -11 -10 -8 -5 3 -10 3 -10 -2
0 -8 130 -12 131 -3 0 3 2 38 4 78 l4 73 -27 -3 c-15 -2 -26 -9 -24 -15 1 -9
-10 -13 -30 -12 -31 0 -32 1 -9 10 13 5 22 11 20 13 -9 9 -215 14 -231 5 -9
-5 -72 -12 -140 -15 -67 -3 -125 -7 -127 -10 -2 -2 35 -4 82 -4 80 0 87 -2 87
-20 0 -17 -7 -20 -44 -20 -24 0 -64 -3 -90 -6 -45 -7 -46 -6 -46 20 0 25 -2
26 -42 20 -63 -10 -70 -10 -75 2 -5 16 31 24 112 24 39 0 99 3 135 6 l65 6 0
134 c0 123 2 134 18 134 17 0 18 -10 15 -130 -3 -118 -1 -130 15 -130 15 0 17
13 17 132 l0 131 100 -6 c84 -5 100 -4 100 9 0 11 7 13 28 8 36 -9 42 -13 42
-29 0 -10 -9 -12 -35 -8 -28 5 -35 2 -35 -11 0 -10 -4 -14 -10 -11 -5 3 -10 1
-10 -5 0 -8 9 -10 28 -5 31 9 46 9 85 -1 l27 -6 0 81 0 82 -27 -3 c-16 -2 -27
-8 -26 -15 2 -8 -8 -13 -28 -13 -18 0 -28 4 -24 10 4 6 11 8 16 5 5 -4 9 -1 9
4 0 6 -8 11 -17 12 -10 0 -53 4 -96 8 -43 3 -80 5 -82 2z m76 -411 l79 0 0
-31 c0 -30 -2 -31 -32 -25 -61 10 -143 9 -165 -2 -15 -8 -34 -9 -60 -3 -36 9
-37 9 -8 11 20 1 25 4 15 8 -24 11 -24 42 0 42 15 0 20 -6 20 -25 0 -18 5 -25
20 -25 13 0 18 5 14 15 -9 23 4 48 22 41 9 -3 51 -6 95 -6z m142 -81 c-4 -15
-12 -19 -32 -17 -15 2 -26 9 -26 18 0 10 8 14 24 12 18 -2 22 2 17 14 -5 14
-4 15 8 5 8 -6 12 -21 9 -32z"/>
<path d="M420 4975 l0 -45 70 1 c39 1 70 4 71 8 0 3 2 17 5 30 3 19 1 22 -13
16 -29 -11 -107 -24 -115 -19 -12 8 -9 32 4 36 7 3 6 7 -5 11 -14 5 -17 0 -17
-38z"/>
<path d="M674 4860 c0 -69 1 -97 3 -62 2 34 2 90 0 125 -2 34 -3 6 -3 -63z"/>
<path d="M869 4918 c-1 -35 -2 -80 -3 -100 0 -20 2 -47 6 -60 3 -13 6 32 7
100 1 67 -1 122 -4 122 -3 0 -5 -28 -6 -62z"/>
<path d="M80 4919 c-75 -5 -68 -5 58 -7 95 -1 142 2 142 9 0 10 -22 10 -200
-2z"/>
<path d="M1305 4915 c24 -8 3624 -12 3619 -4 -3 5 -768 9 -1817 8 -997 0
-1807 -2 -1802 -4z"/>
<path d="M35 4689 c-22 -3 22 -7 97 -8 86 0 139 3 143 9 7 12 -164 10 -240 -1z"/>
<path d="M1320 4684 c55 -7 3600 -9 3600 -2 0 5 -816 7 -1812 7 -997 -1 -1802
-3 -1788 -5z"/>
<path d="M670 4475 c0 -65 3 -116 6 -112 7 7 6 219 -1 226 -3 2 -5 -49 -5
-114z"/>
<path d="M874 4470 c0 -69 1 -97 3 -62 2 34 2 90 0 125 -2 34 -3 6 -3 -63z"/>
<path d="M125 4460 l-130 -6 143 -2 c93 -1 141 1 137 8 -3 6 -9 9 -13 8 -4 -1
-65 -5 -137 -8z"/>
<path d="M1300 4450 c0 -7 617 -10 1815 -10 1195 0 1815 4 1815 10 0 7 -620
10 -1815 10 -1198 0 -1815 -3 -1815 -10z"/>
<path d="M420 4329 c0 -18 3 -20 12 -11 8 8 53 11 148 10 107 -1 121 -3 65 -7
-42 -4 -63 -9 -53 -13 10 -4 47 -5 83 -1 l65 6 0 -27 c0 -26 -1 -26 -69 -26
-38 0 -76 -3 -85 -6 -13 -5 -16 1 -16 26 0 29 -2 31 -27 26 -16 -4 -49 -7 -75
-8 -37 -2 -45 -5 -36 -15 7 -9 7 -17 -2 -27 -6 -8 -10 -25 -8 -38 3 -21 8 -23
71 -25 51 -1 69 2 74 13 4 11 25 14 89 14 l84 0 0 -130 0 -130 -47 0 c-27 0
-65 -3 -85 -6 -31 -5 -38 -4 -38 10 0 13 -11 16 -55 18 -30 1 -63 2 -72 2 -19
1 -25 -41 -13 -85 5 -17 4 -31 -3 -38 -7 -7 -7 -11 -1 -11 6 0 14 3 18 7 4 4
68 7 142 8 156 1 149 -9 -14 -20 -117 -7 -164 -25 -68 -25 30 0 58 5 61 10 3
6 44 10 91 10 l84 0 0 -130 0 -130 -74 0 c-41 0 -78 -4 -81 -10 -4 -6 18 -10
57 -11 87 -1 63 -6 -64 -14 -102 -7 -108 -8 -109 -28 l0 -22 -9 21 c-16 40
-26 33 -28 -17 l-1 -50 179 6 180 5 0 -130 c0 -109 2 -130 15 -130 13 0 15 22
15 135 l0 135 95 0 c76 0 96 3 103 16 6 11 16 14 31 9 17 -5 19 -10 11 -20 -8
-10 -2 -14 27 -17 21 -3 41 -3 46 -1 4 2 7 37 7 78 l0 74 -70 -2 c-69 -1 -102
-17 -36 -17 32 0 55 -14 43 -26 -12 -12 -51 -12 -64 1 -16 17 -183 22 -183 6
0 -15 -23 -19 -65 -11 -36 7 -37 8 -10 9 18 1 25 4 18 9 -8 5 -13 50 -15 135
-3 115 -1 127 15 127 15 0 17 -13 17 -130 0 -109 2 -130 15 -130 13 0 15 22
15 135 l0 135 108 0 c76 0 103 3 92 10 -11 8 -6 10 20 8 43 -4 46 -22 5 -26
-56 -6 -44 -17 20 -18 38 0 66 4 68 10 2 6 4 41 6 79 l2 67 -70 0 c-41 0 -71
-4 -71 -10 0 -6 -35 -10 -86 -10 -54 0 -83 -4 -79 -10 4 -6 -16 -10 -52 -9
-49 0 -54 2 -33 10 13 6 20 13 15 17 -13 9 -13 245 0 254 22 17 25 3 25 -127
0 -113 2 -135 15 -135 13 0 15 22 15 136 l0 136 28 -2 c81 -6 173 1 166 11 -5
8 4 10 30 7 27 -3 35 -1 32 9 -3 7 1 13 9 13 8 0 15 -4 15 -8 0 -14 -35 -42
-52 -42 -23 0 -48 -11 -48 -20 0 -4 30 -6 67 -4 l66 3 0 73 0 73 -139 -3 c-76
-2 -152 -8 -167 -14 -20 -8 -38 -8 -67 1 -21 6 -106 14 -189 17 l-151 5 0 -22z
m648 -6 c6 -19 -45 -16 -52 3 -5 12 0 15 21 12 14 -2 28 -9 31 -15z m-280 -35
c-3 -25 -33 -32 -34 -8 -1 22 5 30 22 30 10 0 14 -8 12 -22z m216 16 c9 -3 16
-15 16 -25 0 -17 -9 -19 -100 -19 l-100 0 0 25 c0 25 1 25 84 25 46 0 91 -3
100 -6z m-179 -54 c4 -6 -17 -10 -57 -10 -66 -1 -86 -3 -231 -22 -90 -11 -103
-9 -94 15 4 12 25 14 99 12 51 -2 127 0 168 4 109 12 108 12 115 1z m247 -295
c1 -5 -11 -12 -27 -15 -23 -4 -30 -10 -30 -30 0 -25 -1 -25 -92 -28 -51 -1
-93 -7 -93 -12 0 -6 -21 -9 -47 -9 -27 1 -40 3 -31 6 14 3 15 9 8 29 -8 20 -7
24 10 24 13 0 20 -7 20 -20 0 -11 7 -20 15 -20 9 0 15 9 15 25 0 25 1 25 84
25 94 0 116 5 116 27 0 16 50 15 52 -2z m-369 -17 c-2 -5 -32 -8 -65 -8 -34 0
-58 -3 -55 -6 4 -4 40 -6 82 -5 69 2 75 0 75 -19 0 -18 -6 -20 -69 -20 -38 0
-76 -3 -85 -6 -12 -5 -16 0 -16 19 0 24 -1 25 -64 20 -67 -6 -98 9 -54 26 27
11 258 9 251 -1z m307 -413 c0 -25 0 -25 -95 -25 -87 0 -95 2 -95 19 0 21 21
26 133 29 55 2 57 1 57 -23z m-264 -7 c2 -15 -6 -18 -56 -18 -31 0 -72 -3 -89
-6 -28 -6 -31 -4 -31 20 l0 27 87 -3 c73 -3 87 -6 89 -20z m42 -3 c-3 -15 -1
-25 6 -24 6 1 20 1 31 0 15 -1 17 -3 7 -10 -8 -4 -30 -6 -50 -4 -37 4 -58 13
-30 13 11 0 14 7 10 25 -3 19 0 25 13 25 13 0 16 -6 13 -25z m302 -3 c0 -12
-3 -13 -11 -5 -6 6 -18 9 -25 6 -8 -3 -14 1 -14 10 0 10 8 13 25 9 14 -2 25
-11 25 -20z m-401 -38 c2 -2 -20 -4 -50 -4 -30 -1 -71 -3 -92 -6 -47 -7 -110
3 -102 16 6 9 235 4 244 -6z"/>
<path d="M68 4223 c39 -2 105 -2 145 0 39 1 7 3 -73 3 -80 0 -112 -2 -72 -3z"/>
<path d="M1294 4219 c-3 -5 731 -9 1816 -9 1218 0 1819 3 1815 10 -8 13 -3623
12 -3631 -1z"/>
<path d="M869 4178 c-2 -71 2 -202 6 -207 3 -2 5 50 5 117 0 67 -2 122 -5 122
-3 0 -5 -15 -6 -32z"/>
<path d="M672 4097 c0 -62 3 -105 9 -101 11 6 11 161 -1 189 -5 12 -8 -22 -8
-88z"/>
<path d="M62 3993 c37 -2 100 -2 140 0 40 1 10 3 -67 3 -77 0 -110 -1 -73 -3z"/>
<path d="M2035 3990 c-517 -4 -184 -6 1073 -8 1199 -1 1822 1 1822 8 0 10
-1409 10 -2895 0z"/>
<path d="M868 3753 c-3 -74 6 -191 12 -148 4 29 0 218 -5 223 -2 2 -5 -32 -7
-75z"/>
<path d="M679 3803 c-2 -41 3 -208 7 -212 2 -2 4 48 4 112 0 65 -2 117 -5 117
-3 0 -5 -8 -6 -17z"/>
<path d="M6 3761 c5 -6 63 -6 144 -2 l135 8 -144 1 c-89 1 -141 -2 -135 -7z"/>
<path d="M1300 3753 c0 -8 3539 -6 3605 1 17 1 -788 4 -1787 4 -1000 1 -1818
-1 -1818 -5z"/>
<path d="M430 3593 c0 -22 4 -23 70 -23 66 0 70 1 70 23 0 21 -4 22 -70 22
-66 1 -70 -1 -70 -22z"/>
<path d="M5 3529 c8 -12 264 -9 271 3 3 4 -58 8 -136 8 -96 0 -139 -3 -135
-11z"/>
<path d="M1300 3522 c0 -8 3603 -5 3625 3 6 2 -808 4 -1807 4 -1000 1 -1818
-3 -1818 -7z"/>
<path d="M741 3324 l4 -125 -55 5 c-30 3 -67 5 -81 6 -18 0 -28 7 -32 19 -4
17 -13 19 -73 18 l-69 -2 -3 -39 c-3 -29 0 -36 10 -31 10 6 11 5 1 -6 -7 -7
-13 -28 -13 -45 0 -38 10 -42 90 -34 30 3 94 4 143 2 l87 -4 0 -134 0 -134
-85 0 -85 0 0 30 0 30 -69 0 c-39 0 -73 -4 -76 -10 -3 -5 -2 -26 4 -45 6 -22
6 -35 0 -35 -6 0 -6 -8 1 -19 7 -14 7 -22 0 -26 -12 -7 -4 -25 11 -25 5 0 9 7
9 16 0 13 10 15 63 9 86 -9 93 -9 174 -7 69 2 73 3 70 25 -1 14 3 22 13 22 9
0 14 -7 12 -17 -2 -11 3 -18 13 -18 8 0 15 9 15 19 0 17 11 20 90 26 60 5 93
12 102 22 10 13 2 14 -63 10 -41 -3 -96 -10 -124 -16 -27 -6 -93 -15 -145 -20
l-95 -9 83 2 c72 1 82 -1 82 -16 0 -16 -11 -18 -85 -18 -79 0 -85 1 -85 20 0
15 -6 20 -22 19 -67 -6 -96 1 -100 24 -5 28 1 49 12 42 5 -3 7 -11 4 -19 -3
-7 1 -13 8 -13 7 -1 63 -4 124 -8 61 -5 123 -5 137 -1 l27 6 -5 134 c-3 111
-2 135 10 140 13 4 15 -16 16 -127 1 -73 1 -135 0 -139 0 -5 8 -8 18 -8 18 0
19 8 15 138 l-4 137 88 3 c96 3 125 9 117 23 -4 5 8 9 24 9 21 0 31 -5 31 -15
0 -10 -10 -15 -34 -15 -19 0 -37 -4 -40 -8 -3 -4 27 -8 65 -8 l70 1 -3 75 -3
75 -67 2 c-55 1 -68 -2 -68 -14 0 -12 7 -14 34 -9 24 5 35 3 39 -8 6 -15 -12
-26 -44 -26 -14 0 -19 -7 -19 -25 0 -25 0 -25 -96 -25 -86 0 -95 2 -92 18 3
14 17 17 90 20 61 2 90 7 98 17 11 13 0 15 -79 15 -59 0 -90 -4 -86 -10 4 -7
-62 -10 -190 -10 -168 0 -196 2 -202 16 -11 29 12 33 86 13 49 -13 97 -19 145
-17 l71 3 3 128 c2 89 -1 127 -9 127 -8 0 -10 -37 -8 -126z m7 -177 c3 -15 -6
-17 -81 -17 -77 0 -85 2 -90 20 -5 20 -2 21 81 18 73 -3 87 -6 90 -21z m42 -7
c0 -16 7 -20 33 -21 26 0 29 -2 12 -8 -11 -5 -38 -5 -60 -1 -29 6 -33 8 -15
10 14 1 19 4 13 7 -18 7 -16 33 2 33 8 0 15 -9 15 -20z m-263 -5 c43 -8 100
-15 127 -15 27 0 47 -2 44 -5 -3 -3 -55 -6 -116 -7 -107 -1 -142 7 -142 33 0
11 -6 12 87 -6z"/>
<path d="M869 3408 c-2 -116 2 -183 11 -192 7 -7 10 27 10 106 0 67 -4 119
-10 123 -6 4 -10 -11 -11 -37z"/>
<path d="M684 3325 c0 -60 1 -84 3 -52 2 32 2 81 0 110 -2 29 -3 3 -3 -58z"/>
<path d="M5 3300 c-4 -6 43 -10 134 -10 87 0 141 4 141 10 0 6 -51 10 -134 10
-79 0 -137 -4 -141 -10z"/>
<path d="M1390 3289 c-58 -4 714 -5 1715 -2 1001 2 1822 6 1824 9 7 7 -3419 0
-3539 -7z"/>
<path d="M120 3070 l-125 -6 143 -2 c93 -1 141 1 137 8 -3 6 -12 9 -18 8 -7
-1 -68 -5 -137 -8z"/>
<path d="M684 2960 c0 -69 1 -97 3 -62 2 34 2 90 0 125 -2 34 -3 6 -3 -63z"/>
<path d="M873 3073 c4 -3 2 -12 -4 -19 -7 -8 -7 -14 1 -19 6 -3 7 -12 3 -18
-10 -16 -5 -146 7 -166 6 -11 9 24 10 107 0 86 -3 122 -12 122 -6 0 -8 -3 -5
-7z"/>
<path d="M1740 3060 c-245 -3 371 -6 1368 -7 1037 0 1815 4 1818 9 6 9 -2395
7 -3186 -2z"/>
<path d="M1005 2859 c-11 -17 1 -21 36 -14 23 5 28 10 18 16 -19 12 -46 11
-54 -2z"/>
<path d="M1085 2850 c4 -12 0 -22 -11 -28 -11 -6 -13 -11 -5 -16 6 -4 11 -12
11 -17 0 -6 -4 -7 -10 -4 -5 3 -10 0 -10 -7 0 -10 -3 -9 -9 2 -6 8 -7 18 -5
22 3 4 -4 8 -15 8 -14 0 -21 -8 -23 -27 -3 -30 3 -29 -156 -32 -13 -1 -21 -5
-18 -10 7 -11 -270 -26 -319 -17 -20 4 -35 3 -35 -2 0 -6 6 -10 13 -9 6 0 67
-1 135 -1 l122 -2 0 -135 c0 -88 4 -135 11 -135 7 0 9 45 7 135 -3 123 -1 135
15 135 15 0 17 -13 17 -130 0 -114 2 -130 16 -130 15 0 16 15 12 134 l-4 134
93 4 c77 2 96 6 104 21 6 10 22 17 39 17 34 0 39 -13 13 -30 -15 -10 -14 -11
9 -7 15 2 25 0 22 -4 -3 -5 4 -9 15 -9 19 0 21 6 21 75 0 53 -4 75 -12 76 -7
0 -21 2 -31 4 -13 3 -16 -1 -12 -15z"/>
<path d="M130 2840 l-135 -6 143 -2 c93 -1 141 1 137 8 -3 6 -7 9 -8 8 -1 -1
-63 -5 -137 -8z"/>
<path d="M1975 2830 c-374 -3 -675 -6 -670 -8 47 -11 3611 3 3624 14 6 5
-2048 1 -2954 -6z"/>
<path d="M5078 1928 c-2 -436 0 -797 5 -803 4 -5 7 352 7 793 0 441 -2 802 -5
802 -2 0 -6 -357 -7 -792z"/>
<path d="M876 2585 c1 -64 4 -118 8 -122 3 -3 6 48 6 115 0 67 -3 122 -7 122
-5 0 -8 -52 -7 -115z"/>
<path d="M681 2633 c1 -32 5 -85 9 -118 6 -54 7 -48 9 52 0 65 -3 114 -9 118
-6 4 -10 -15 -9 -52z"/>
<path d="M73 2603 c43 -2 110 -2 150 0 40 1 5 3 -78 3 -82 0 -115 -2 -72 -3z"/>
<path d="M2408 2602 c-819 -1 -1108 -5 -1108 -13 0 -9 109 -10 418 -6 229 4
1042 8 1805 9 764 1 1394 6 1400 10 7 4 -307 7 -698 5 -390 -1 -1208 -3 -1817
-5z"/>
<path d="M438 2430 c3 -61 7 -80 18 -80 11 0 13 15 10 70 -2 39 0 73 5 76 5 3
9 -6 9 -19 0 -23 4 -25 50 -29 l50 -3 0 33 0 32 -72 0 -73 0 3 -80z"/>
<path d="M1005 2492 c-15 -15 -1 -23 38 -20 53 4 63 -13 17 -29 -29 -9 -37 -9
-46 3 -14 18 -73 18 -143 -1 -63 -16 -322 -36 -363 -28 -23 4 -28 2 -28 -15 0
-23 18 -32 66 -32 27 0 34 4 34 20 0 19 7 20 91 20 81 0 90 -2 87 -17 -3 -15
-15 -18 -63 -20 -102 -3 -113 -6 -40 -13 59 -6 52 -7 -47 -6 -64 0 -113 -3
-109 -7 5 -5 65 -9 135 -9 l126 0 0 -134 c0 -74 3 -134 8 -134 4 0 6 61 4 135
-2 116 -1 135 13 135 13 0 15 -19 15 -129 0 -105 3 -130 15 -135 13 -5 15 14
15 129 0 119 2 134 18 139 29 9 148 10 162 1 9 -5 11 -4 6 3 -4 7 0 12 11 13
11 0 13 3 5 6 -19 7 -4 23 24 23 17 0 24 -6 24 -18 0 -14 8 -19 30 -19 l30 0
0 73 0 72 -65 0 c-35 0 -67 -3 -70 -6z m5 -81 c0 -22 -26 -31 -95 -31 -28 0
-60 -7 -71 -14 -20 -15 -67 -16 -81 -3 -3 4 -2 7 4 7 6 0 9 9 6 20 -4 14 0 20
12 20 12 0 16 -6 12 -20 -4 -15 0 -20 14 -20 14 0 19 7 19 25 0 22 4 24 58 28
128 8 122 8 122 -12z"/>
<path d="M595 2440 c7 -12 54 -12 110 -1 35 8 30 9 -38 10 -50 1 -76 -3 -72
-9z"/>
<path d="M1 2375 c7 -6 279 -8 286 -1 4 3 -60 6 -142 6 -82 0 -146 -2 -144 -5z"/>
<path d="M2408 2372 c-823 -1 -1108 -5 -1108 -14 0 -8 122 -9 478 -4 262 3
1074 7 1805 7 792 1 1329 5 1333 10 3 6 -274 8 -698 7 -387 -2 -1201 -4 -1810
-6z"/>
<path d="M879 2308 c-3 -66 1 -211 6 -216 3 -3 5 52 5 121 0 70 -2 127 -5 127
-3 0 -6 -15 -6 -32z"/>
<path d="M694 2205 c0 -66 1 -92 3 -57 2 34 2 88 0 120 -2 31 -3 3 -3 -63z"/>
<path d="M73 2143 c43 -2 110 -2 150 0 40 1 5 3 -78 3 -82 0 -115 -2 -72 -3z"/>
<path d="M445 2137 c-2 -7 -3 -43 -2 -81 2 -55 5 -70 18 -71 12 -2 15 3 12 16
-5 18 -1 19 38 13 24 -3 57 -10 73 -15 16 -5 54 -10 85 -11 51 -1 48 -2 -24
-8 l-80 -6 98 -2 97 -2 1 -122 c1 -68 0 -130 -1 -138 -1 -11 1 -12 10 -4 8 8
11 51 8 138 -2 107 -1 126 12 126 13 0 15 -19 14 -117 -1 -121 2 -143 17 -143
5 0 9 58 9 129 l0 128 46 7 c26 3 68 6 93 7 51 0 107 17 63 18 -38 1 -14 21
25 21 28 0 34 -3 29 -16 -5 -13 -2 -15 14 -11 11 3 20 1 20 -4 0 -5 5 -9 10
-9 6 0 10 32 10 75 l0 75 -70 0 c-58 0 -70 -3 -70 -16 0 -14 7 -15 39 -10 63
10 62 -23 0 -39 -19 -5 -28 -2 -32 10 -6 13 -16 15 -59 9 -29 -3 -69 -11 -88
-17 -40 -12 -101 -10 -114 3 -6 6 -43 10 -83 10 l-73 0 0 30 c0 24 -4 30 -22
31 -13 0 -45 2 -71 4 -31 3 -49 0 -52 -8z m40 -27 c-3 -5 7 -12 22 -15 15 -4
53 -12 83 -19 30 -8 70 -11 88 -9 21 4 32 1 32 -7 0 -8 -17 -11 -54 -8 -30 1
-52 0 -49 -4 2 -5 38 -8 79 -8 69 0 74 -2 74 -21 0 -17 -4 -20 -22 -15 -13 3
-51 6 -85 6 -56 0 -63 2 -63 20 0 15 -7 20 -27 20 -16 0 -38 3 -50 6 -17 5
-23 2 -23 -10 0 -27 -17 -18 -21 12 -6 38 1 73 12 66 5 -3 7 -9 4 -14z m525
-69 c0 -22 -26 -31 -93 -31 -26 0 -58 -7 -70 -15 -25 -16 -89 -16 -79 0 4 6 5
18 4 28 -2 10 3 17 12 17 9 0 16 -9 16 -20 0 -11 7 -20 15 -20 8 0 15 9 15 20
0 11 1 20 3 21 1 0 31 3 67 6 36 3 67 7 69 9 13 12 41 2 41 -15z"/>
<path d="M3648 2145 c-2 -3 -529 -5 -1171 -5 -850 -1 -1168 -4 -1173 -12 -5
-8 142 -9 562 -5 313 4 1039 8 1614 9 575 1 1137 5 1250 8 122 4 -55 7 -436 7
-353 1 -644 0 -646 -2z"/>
<path d="M877 1938 c-2 -13 -8 -32 -12 -43 -5 -15 -4 -16 3 -6 7 10 10 -11 10
-73 -1 -47 2 -89 6 -93 3 -3 6 48 6 115 0 120 -3 144 -13 100z"/>
<path d="M691 1863 c-1 -56 3 -93 9 -93 12 0 12 137 0 165 -6 13 -9 -12 -9
-72z"/>
<path d="M73 1913 c43 -2 110 -2 150 0 40 1 5 3 -78 3 -82 0 -115 -2 -72 -3z"/>
<path d="M3747 1914 c-2 -2 -551 -4 -1220 -4 -856 -1 -1219 -5 -1223 -12 -5
-8 233 -9 827 -5 459 4 1205 8 1659 9 454 1 895 5 980 8 89 4 -94 7 -433 7
-323 0 -588 -2 -590 -3z"/>
<path d="M450 1701 c0 -58 4 -80 14 -84 10 -4 12 0 9 14 -6 22 0 22 72 7 28
-5 82 -13 120 -18 63 -7 60 -7 -35 -5 -58 2 -114 7 -125 10 -16 5 -17 5 -5 -3
17 -13 106 -23 203 -25 l67 -1 0 -134 0 -134 -57 6 c-32 3 -70 5 -85 6 -25 0
-28 4 -28 35 0 38 2 37 -87 39 -29 1 -53 -3 -54 -9 -4 -37 -1 -137 5 -142 3
-3 6 1 6 10 0 20 4 21 31 6 26 -13 99 -2 99 16 0 16 -90 27 -108 12 -7 -6 -12
-6 -10 -1 1 5 -3 19 -10 31 -7 12 -9 24 -4 27 4 2 39 -5 77 -16 39 -12 97 -24
130 -27 l60 -5 -60 -7 -60 -6 78 -1 c71 -2 77 -4 77 -23 0 -21 -3 -21 -107
-16 -65 4 -98 3 -83 -2 29 -10 171 -14 194 -5 8 3 12 12 10 19 -7 18 15 30 29
16 9 -9 8 -14 -3 -21 -12 -8 -11 -10 7 -10 15 0 21 5 17 14 -8 20 2 23 81 31
74 8 109 20 100 35 -9 14 64 41 83 31 13 -7 10 -13 -19 -30 -19 -11 -42 -21
-51 -21 -11 0 -18 -8 -18 -19 0 -20 -34 -31 -102 -31 -23 0 -46 -7 -55 -16
-14 -14 -38 -15 -172 -11 -86 2 -167 7 -181 11 -14 3 -5 -1 20 -10 27 -9 86
-16 147 -17 l103 -2 2 -102 c1 -57 2 -113 2 -125 1 -22 -2 -23 -78 -20 -44 1
-81 4 -83 6 -2 1 -4 15 -5 30 -3 35 -19 42 -88 42 l-55 -1 -1 -78 c0 -57 3
-75 10 -65 9 12 15 12 36 1 30 -15 54 -17 45 -3 -4 6 7 10 24 10 21 0 31 5 31
15 0 11 -12 15 -47 16 -27 1 -53 1 -58 0 -13 -1 -37 37 -30 49 5 8 19 5 110
-26 43 -15 133 -18 209 -8 l47 7 -3 127 -3 128 105 12 c98 10 157 29 100 31
-23 0 -23 1 -5 9 30 13 63 12 61 -2 0 -7 4 -15 9 -16 6 -2 17 -8 25 -12 13 -7
15 3 13 68 l-2 77 -65 3 c-64 3 -66 2 -66 -21 0 -27 -21 -37 -78 -37 -18 0
-49 -7 -69 -15 -39 -17 -103 -21 -88 -6 6 5 21 11 35 13 l25 3 -2 131 -1 132
107 6 c126 9 157 20 78 30 -62 8 -177 -2 -177 -15 0 -5 -19 -8 -42 -8 -24 1
-35 3 -26 6 11 3 16 13 15 30 -1 14 4 28 12 31 10 3 13 -2 9 -22 -4 -18 -1
-26 8 -26 8 0 14 11 14 25 0 20 5 25 24 25 15 0 26 -7 29 -17 4 -16 5 -16 6
-1 1 11 14 18 44 23 23 3 50 9 60 11 13 4 17 -1 17 -25 0 -29 2 -30 33 -25 17
3 38 7 45 10 16 5 16 -33 0 -39 -7 -3 -4 -6 7 -6 11 0 25 3 32 7 14 9 22 141
8 145 -19 7 -46 -6 -41 -19 6 -15 -30 -44 -53 -44 -8 0 -22 6 -30 13 -13 12
-29 11 -96 0 -136 -23 -165 -26 -165 -14 0 7 -27 10 -77 9 l-78 -2 70 -6 70
-6 -75 -4 c-41 -2 -96 -3 -122 -1 -29 1 -48 -2 -48 -8 0 -25 -15 -8 -17 19 -2
26 1 30 25 30 15 0 42 -4 60 -9 32 -10 32 -9 32 25 l0 34 -70 0 -70 0 0 -79z
m318 -49 c3 -19 -1 -22 -35 -22 -21 0 -62 3 -90 6 -43 6 -53 10 -53 25 0 17 8
19 88 16 81 -3 87 -5 90 -25z m44 -173 c3 -115 -2 -152 -18 -136 -4 3 -8 63
-10 132 -2 100 0 125 11 125 11 0 15 -27 17 -121z m1 -262 c3 -7 6 -64 6 -125
1 -91 -1 -112 -13 -112 -11 0 -14 24 -15 125 -1 72 2 125 8 125 5 0 11 -6 14
-13z"/>
<path d="M1018 1762 c-9 -2 -15 -9 -12 -17 4 -10 13 -11 36 -4 17 4 33 10 35
12 6 7 -39 13 -59 9z"/>
<path d="M4889 1696 c-2 -2 -807 -7 -1789 -11 -1178 -5 -1788 -11 -1795 -17
-7 -7 136 -8 435 -4 245 3 929 7 1520 9 1420 3 1662 5 1655 17 -6 10 -19 13
-26 6z"/>
<path d="M73 1683 c43 -2 110 -2 150 0 40 1 5 3 -78 3 -82 0 -115 -2 -72 -3z"/>
<path d="M881 1573 c0 -13 -7 -23 -13 -23 -10 0 -10 -3 0 -9 10 -6 13 -29 12
-77 -1 -38 -1 -80 0 -94 1 -24 2 -24 10 -3 5 12 5 68 1 125 -5 56 -9 93 -10
81z"/>
<path d="M704 1465 c0 -66 1 -92 3 -57 2 34 2 88 0 120 -2 31 -3 3 -3 -63z"/>
<path d="M8 1458 c-7 -4 56 -8 141 -8 85 0 152 2 150 4 -8 8 -279 12 -291 4z"/>
<path d="M4889 1466 c-2 -2 -800 -8 -1774 -12 -973 -3 -1779 -10 -1790 -14
-11 -4 414 -6 945 -4 1735 8 2650 16 2644 25 -5 9 -18 12 -25 5z"/>
<path d="M10 1230 c0 -6 51 -10 147 -10 80 0 144 2 142 4 -10 10 -289 17 -289
6z"/>
<path d="M1858 1222 c-302 -1 -548 -6 -548 -10 0 -9 2206 -4 3030 8 494 7 390
8 -675 6 -693 0 -1506 -2 -1807 -4z"/>
<path d="M879 1198 c-1 -28 -1 -142 0 -181 1 -16 5 -26 11 -22 6 3 10 52 10
110 0 58 -4 107 -10 110 -5 3 -10 -4 -11 -17z"/>
<path d="M702 1125 c0 -49 4 -99 9 -110 5 -12 8 15 8 70 0 50 -4 99 -9 110 -6
13 -9 -10 -8 -70z"/>
<path d="M1013 1024 c-9 -24 2 -26 41 -10 35 15 35 14 50 -15 8 -16 11 -29 6
-29 -5 0 -10 5 -12 11 -3 9 -9 9 -25 0 -27 -14 -66 -15 -58 -1 4 6 -9 10 -32
9 -52 -1 -143 -16 -118 -19 46 -6 -45 -18 -144 -19 -57 0 -102 -4 -99 -7 3 -3
40 -5 82 -6 73 0 76 -1 76 -23 0 -23 -1 -23 -102 -18 -124 6 -124 -7 -1 -18
l88 -8 -110 4 c-60 1 -123 8 -138 14 -16 6 -26 7 -22 2 9 -16 103 -31 195 -31
l90 0 0 -114 c0 -63 3 -121 6 -130 5 -14 -6 -16 -85 -16 l-91 0 0 45 c0 33 -4
45 -15 46 -8 1 -39 1 -67 2 l-53 1 -2 -79 c0 -44 1 -72 4 -62 4 15 7 16 26 2
25 -18 51 -20 41 -4 -5 8 4 10 29 7 20 -2 38 -1 39 2 2 3 43 4 91 2 82 -3 89
-5 84 -23 -4 -16 0 -19 28 -19 28 0 32 3 28 23 -4 23 -1 24 59 31 34 3 74 9
88 12 21 5 25 2 26 -19 2 -28 -23 -37 -103 -37 -27 0 -42 -4 -38 -10 8 -12
-87 -14 -100 -1 -6 5 -57 11 -115 14 -58 3 -91 1 -75 -3 17 -4 53 -8 82 -9 28
0 54 -5 58 -10 7 -12 -113 -3 -177 14 -27 7 -48 9 -48 4 0 -12 99 -31 198 -36
l92 -6 0 -131 c0 -72 -4 -137 -9 -145 -7 -11 -33 -13 -131 -9 -101 4 -126 9
-148 25 l-28 20 4 -34 c3 -25 7 -32 15 -24 15 15 24 14 31 -5 4 -10 2 -13 -7
-8 -8 5 -7 2 2 -9 22 -27 144 -50 259 -49 50 0 52 -1 46 -21 -4 -12 -11 -25
-16 -28 -6 -4 -6 -9 1 -14 9 -5 9 -10 1 -20 -15 -19 26 -31 46 -14 14 11 14
13 0 21 -10 5 -16 22 -16 42 l0 34 68 7 c37 3 99 14 137 23 39 9 80 16 93 15
16 0 21 4 18 14 -4 8 -6 43 -6 77 l0 62 -65 0 c-65 0 -65 0 -65 -28 0 -33 0
-33 50 -8 45 23 68 8 32 -21 -12 -9 -22 -22 -22 -28 0 -8 -12 -6 -35 3 -28 12
-48 13 -97 5 -34 -6 -67 -14 -73 -18 -14 -12 -85 -19 -85 -9 0 4 14 8 31 8
l31 0 -6 134 -6 134 62 7 c96 10 178 27 184 37 4 6 -6 8 -27 4 -41 -8 -19 8
25 18 24 6 28 4 24 -11 -4 -14 2 -18 21 -20 l26 -2 -5 77 c-5 72 -6 77 -27 76
-111 -3 -113 -4 -113 -24 0 -24 2 -24 42 -4 30 15 32 15 45 -2 7 -10 13 -23
12 -28 0 -6 -3 -5 -6 1 -4 10 -10 10 -26 -2 -26 -18 -54 -20 -59 -3 -5 14
-151 -6 -156 -22 -2 -5 -27 -9 -55 -9 -29 1 -41 4 -26 6 l25 4 -3 97 c-2 53
-5 114 -7 135 -2 26 1 37 10 37 11 0 14 -27 14 -130 0 -80 4 -130 10 -130 6 0
10 50 10 130 0 149 -12 134 120 145 41 3 79 10 84 15 7 7 3 10 -9 11 -14 0 -9
5 15 16 23 10 36 11 38 4 2 -6 12 -11 22 -11 11 0 23 -6 27 -14 4 -8 7 20 6
62 l-2 77 -61 2 c-46 1 -63 -2 -67 -13z m-3 -88 c0 -21 -6 -24 -52 -30 -95
-11 -118 -8 -118 14 0 11 3 20 8 21 68 6 108 12 111 15 2 2 15 4 28 4 18 0 23
-6 23 -24z m-192 -21 c-5 -23 -2 -25 31 -26 l36 -1 -40 -9 c-22 -4 -49 -8 -60
-8 -19 0 -19 1 -3 13 10 7 15 16 12 19 -9 9 4 37 17 37 7 0 9 -10 7 -25z
m-298 -280 c5 3 10 2 10 -3 0 -16 95 -42 149 -42 30 0 51 -4 51 -11 0 -7 -29
-9 -92 -5 -130 8 -152 16 -156 51 -3 25 -2 27 12 16 8 -7 20 -10 26 -6z m307
-275 c2 -79 -1 -130 -7 -130 -6 0 -10 47 -10 114 0 63 -3 121 -6 130 -4 10 -1
16 8 16 10 0 14 -28 15 -130z m193 -154 c0 -12 7 -13 32 -5 42 12 43 12 29 -4
-6 -8 -9 -16 -7 -18 2 -2 -10 -5 -27 -5 -71 -3 -183 -17 -192 -25 -7 -5 -11 1
-11 16 0 21 6 26 36 31 19 3 53 9 75 14 59 12 65 11 65 -4z m-325 -19 c81 -2
100 -5 100 -17 0 -8 7 -18 15 -22 13 -5 12 -7 -2 -7 -9 -1 -20 4 -23 9 -3 6
-34 10 -68 11 -80 0 -155 13 -170 28 -9 9 -4 10 18 6 17 -3 75 -7 130 -8z m70
-47 c4 -6 -8 -10 -29 -10 -20 0 -36 5 -36 10 0 6 13 10 29 10 17 0 33 -4 36
-10z"/>
<path d="M73 1003 c42 -2 112 -2 155 0 42 1 7 3 -78 3 -85 0 -120 -2 -77 -3z"/>
<path d="M4316 1003 c-1 -2 -562 -4 -1247 -5 -1093 -2 -1785 -9 -1754 -16 16
-4 1686 -1 1835 3 74 2 501 5 948 5 542 1 812 4 812 11 0 7 -100 9 -296 7
-162 -1 -296 -4 -298 -5z"/>
<path d="M885 840 c-9 -15 -9 -209 0 -219 13 -12 15 15 13 120 -2 77 -6 109
-13 99z"/>
<path d="M714 730 c0 -63 1 -89 3 -57 2 31 2 83 0 115 -2 31 -3 5 -3 -58z"/>
<path d="M5045 764 c3 -20 13 -43 21 -51 12 -13 14 -11 14 12 0 15 -4 24 -10
20 -6 -4 -10 7 -10 24 0 17 -5 31 -11 31 -7 0 -9 -12 -4 -36z"/>
<path d="M13 778 c-2 -5 65 -7 149 -7 173 2 164 7 -20 11 -68 2 -126 0 -129
-4z"/>
<path d="M3948 774 c-2 -2 -530 -5 -1174 -6 -643 -1 -1236 -5 -1319 -9 -82 -4
176 -5 575 -3 399 2 1148 5 1665 6 517 2 1003 5 1080 8 77 4 -77 7 -342 7
-264 1 -483 0 -485 -3z"/>
<path d="M5074 365 c0 -181 2 -257 3 -168 2 89 2 237 0 330 -1 92 -3 20 -3
-162z"/>
<path d="M60 550 c102 -12 252 -12 245 0 -4 6 -66 9 -158 8 -122 -1 -139 -2
-87 -8z"/>
<path d="M1768 542 c-329 -2 -448 -5 -448 -14 0 -8 54 -9 208 -5 114 4 731 8
1372 9 641 1 1356 5 1590 8 236 4 -176 6 -925 6 -742 -1 -1551 -2 -1797 -4z"/>
<path d="M889 460 c-4 -14 -3 -68 0 -120 4 -60 8 -82 11 -60 7 49 -3 212 -11
180z"/>
<path d="M717 453 c-11 -11 -8 -193 3 -193 6 0 10 40 10 100 0 100 -1 106 -13
93z"/>
<path d="M0 331 c0 -7 53 -11 163 -11 89 0 157 4 150 8 -19 12 -313 15 -313 3z"/>
<path d="M480 311 c0 -29 40 -62 99 -80 49 -15 201 -28 189 -16 -4 4 -28 8
-55 10 -101 5 -93 0 -93 55 0 33 -4 50 -12 50 -7 1 -39 2 -70 3 -55 2 -58 1
-58 -22z"/>
<path d="M2685 320 c-748 -4 -1361 -7 -1362 -8 -2 -1 -3 -6 -3 -11 0 -6 15 -8
32 -6 41 5 1897 15 2851 15 464 0 707 3 707 10 0 7 -149 9 -432 8 -238 -1
-1045 -5 -1793 -8z"/>
<path d="M718 71 l-3 -33 -160 0 c-145 0 -153 -1 -85 -9 61 -8 176 -7 283 1 9
1 17 8 17 16 0 8 -4 13 -10 9 -5 -3 -16 7 -24 22 l-14 28 -4 -34z"/>
<path d="M891 64 c-1 -32 3 -43 17 -45 9 -2 947 -3 2085 -1 1496 2 2067 5
2067 13 0 8 -564 10 -2057 7 -1132 -3 -2064 -7 -2072 -9 -10 -3 -19 10 -27 36
l-12 40 -1 -41z"/>
<path d="M0 47 c3 -3 91 -7 195 -10 105 -2 174 -2 155 2 -41 8 -357 15 -350 8z"/>
</g>
</svg>
