<?xml version="1.0" standalone="no"?>
<!DOCTYPE svg PUBLIC "-//W3C//DTD SVG 20010904//EN"
 "http://www.w3.org/TR/2001/REC-SVG-20010904/DTD/svg10.dtd">
<svg version="1.0" xmlns="http://www.w3.org/2000/svg"
 width="655.000000pt" height="381.000000pt" viewBox="0 0 655.000000 381.000000"
 preserveAspectRatio="xMidYMid meet">

<g transform="translate(0.000000,381.000000) scale(0.100000,-0.100000)"
fill="#000000" stroke="none">
<path d="M2932 3659 c-34 -14 -62 -33 -80 -56 -15 -20 -41 -52 -58 -71 l-31
-35 -24 44 c-30 54 -58 69 -130 69 -115 0 -228 -60 -286 -153 -14 -23 -44 -64
-66 -91 l-41 -49 -17 40 c-21 50 -73 78 -127 68 -72 -13 -107 -40 -169 -132
-43 -61 -95 -119 -174 -190 -108 -98 -209 -201 -309 -319 -25 -29 -72 -76
-105 -104 -100 -86 -322 -309 -409 -410 -120 -139 -197 -249 -290 -412 -31
-56 -107 -240 -142 -348 -61 -186 -173 -759 -174 -888 0 -55 17 -87 77 -143
131 -123 333 -240 512 -298 114 -37 315 -83 343 -79 16 2 25 21 44 87 53 181
133 305 234 359 30 16 111 46 179 66 114 33 135 36 255 36 l131 1 130 50 c346
134 508 174 675 166 130 -6 180 -20 180 -49 0 -11 16 -36 36 -54 46 -44 96
-46 186 -5 35 16 92 37 125 45 78 20 222 20 298 0 33 -8 119 -30 190 -49 124
-32 238 -70 405 -135 66 -25 91 -29 215 -33 158 -6 263 -31 384 -91 127 -64
146 -91 232 -316 l47 -125 58 2 c132 5 406 91 551 174 163 93 306 211 335 278
18 43 18 48 2 155 -47 318 -135 717 -193 872 -68 185 -164 369 -253 490 -140
191 -273 335 -493 538 -82 76 -166 157 -185 181 -78 95 -172 191 -298 306 -80
73 -140 136 -153 161 -25 49 -93 125 -130 144 -38 19 -119 18 -148 -2 -13 -9
-30 -32 -38 -51 -14 -35 -14 -35 -35 -17 -11 11 -38 45 -60 77 -86 127 -140
166 -261 188 -52 10 -75 10 -106 0 -43 -12 -91 -61 -91 -92 0 -32 -13 -22 -70
53 -60 78 -103 105 -188 115 -103 12 -151 -50 -152 -193 0 -88 6 -101 94 -217
l28 -37 -41 0 c-44 0 -89 -18 -111 -45 -11 -14 -15 -11 -31 24 -19 44 -61 71
-122 80 l-38 6 44 60 c68 94 71 102 71 190 -1 93 -18 135 -67 165 -41 25 -97
25 -165 -1z m172 -52 c15 -21 22 -47 24 -103 4 -70 2 -78 -28 -127 -18 -29
-52 -77 -76 -107 -49 -61 -134 -177 -239 -324 -38 -54 -88 -121 -111 -149
-173 -220 -294 -390 -294 -415 0 -36 41 4 141 138 103 139 113 149 138 144 43
-10 108 -52 131 -84 20 -27 50 -32 50 -8 0 25 -88 98 -133 110 -26 7 -47 15
-47 18 1 12 324 438 355 468 41 38 82 42 131 11 65 -40 53 -128 -37 -281 -27
-46 -49 -88 -49 -95 0 -18 -86 -180 -124 -233 -18 -25 -49 -83 -71 -130 -50
-110 -111 -205 -195 -305 -65 -76 -87 -106 -183 -250 -71 -104 -263 -515 -281
-601 -6 -26 -15 -35 -54 -49 -87 -33 -182 -85 -182 -100 0 -21 12 -19 73 11
189 93 369 136 572 135 150 -1 268 -20 371 -61 70 -28 205 -108 219 -129 3 -6
-19 -39 -49 -73 -31 -34 -64 -79 -73 -100 -17 -38 -19 -39 -53 -33 -139 27
-316 20 -450 -16 -80 -21 -227 -73 -400 -141 -103 -41 -108 -42 -235 -43 -71
-1 -150 -7 -175 -13 -107 -26 -225 -64 -268 -86 -108 -55 -199 -187 -254 -368
-13 -45 -28 -78 -36 -78 -30 0 -223 44 -291 67 -125 42 -267 109 -358 170
-108 73 -219 178 -229 217 -11 45 86 588 142 794 126 467 331 777 799 1205 77
71 159 152 181 180 56 70 239 256 347 351 48 43 97 96 108 118 11 22 44 64 73
94 47 49 56 54 95 54 56 0 77 -13 90 -53 16 -49 5 -72 -107 -209 -53 -66 -110
-137 -127 -158 -16 -21 -59 -73 -95 -116 -35 -44 -91 -112 -124 -152 -47 -57
-57 -75 -47 -85 10 -9 18 -5 42 23 34 41 225 274 368 450 29 36 78 96 109 134
71 85 127 159 169 219 54 79 122 118 230 134 80 11 133 -33 133 -110 0 -28
-19 -59 -102 -168 -56 -74 -151 -199 -212 -279 -60 -80 -128 -168 -150 -197
-23 -28 -70 -90 -106 -138 -36 -47 -80 -104 -98 -127 -26 -32 -30 -43 -21 -55
10 -12 15 -11 34 7 l21 20 45 -23 c24 -13 61 -46 81 -73 36 -47 58 -60 65 -39
6 20 -89 127 -128 144 -21 9 -39 19 -39 22 0 3 46 65 103 137 156 199 227 293
395 522 62 85 125 170 140 189 15 19 54 71 87 115 72 97 106 118 189 114 51
-3 62 -7 80 -31z m392 -36 c43 -19 45 -22 344 -426 239 -323 307 -412 433
-567 l58 -72 -38 -18 c-46 -23 -88 -61 -119 -110 -28 -44 -28 -44 -9 -52 11
-4 25 9 46 43 45 74 125 117 160 85 14 -13 22 -15 31 -6 8 8 -12 41 -78 127
-49 64 -98 130 -109 145 -11 15 -59 79 -107 142 -160 206 -309 402 -354 462
-56 75 -60 122 -13 168 30 30 31 31 110 25 71 -5 87 -10 134 -41 31 -20 70
-59 92 -91 32 -47 111 -148 171 -220 10 -11 37 -45 62 -76 88 -109 214 -264
244 -300 17 -19 67 -79 110 -132 43 -53 85 -97 92 -97 32 0 29 4 -259 359 -44
53 -104 128 -135 166 -31 39 -59 72 -62 75 -45 37 -53 118 -15 155 59 60 171
-1 236 -127 10 -20 85 -98 166 -173 82 -75 180 -173 218 -218 39 -45 108 -118
155 -162 455 -429 565 -561 756 -907 22 -41 92 -229 125 -338 49 -160 159
-731 159 -823 0 -33 -8 -47 -57 -99 -127 -133 -320 -247 -530 -313 -135 -43
-294 -78 -304 -67 -4 4 -23 48 -42 97 -94 245 -127 286 -282 355 -140 61 -228
80 -380 84 -124 2 -134 4 -224 40 -137 56 -222 84 -346 116 -60 15 -144 38
-185 51 -59 18 -101 23 -195 23 -128 1 -176 -10 -280 -62 -92 -46 -185 -22
-185 48 0 38 52 113 140 201 167 169 410 232 701 183 111 -19 284 -70 424
-124 74 -29 101 -36 107 -27 11 18 -11 31 -115 68 -51 18 -97 36 -103 41 -7 5
-15 25 -19 46 -11 60 -51 154 -157 372 -74 151 -125 239 -193 335 -51 72 -102
139 -115 150 -40 36 -128 170 -180 273 -27 56 -50 104 -50 108 0 3 -15 27 -33
53 -46 62 -94 149 -112 201 -8 24 -37 82 -64 129 -27 47 -57 112 -66 143 -14
50 -14 60 -1 92 15 37 59 66 100 66 29 0 78 -39 109 -86 12 -18 84 -115 160
-215 76 -100 141 -187 143 -194 3 -7 -11 -16 -34 -23 -40 -12 -115 -70 -133
-103 -20 -39 17 -30 64 15 42 40 112 73 136 64 5 -2 56 -67 115 -145 59 -78
110 -144 114 -147 5 -3 14 -1 21 4 11 6 -1 30 -49 102 -35 51 -82 116 -104
144 -92 117 -160 205 -235 309 -126 174 -155 213 -247 335 -47 63 -93 129
-100 147 -27 62 -13 169 26 211 26 28 98 29 156 3z m-276 -589 c0 -24 43 -113
85 -176 19 -29 35 -59 35 -67 0 -23 56 -134 100 -200 23 -33 70 -118 105 -187
60 -122 105 -190 225 -338 99 -123 166 -226 235 -364 115 -232 203 -436 191
-447 -2 -2 -46 7 -97 21 -248 65 -497 64 -668 -4 -29 -11 -84 -41 -122 -66
l-70 -45 -37 29 c-217 172 -567 228 -893 143 -52 -14 -69 -16 -69 -6 0 24 98
250 174 401 83 167 183 319 305 464 61 72 99 131 157 245 43 83 94 175 114
205 46 69 78 131 94 184 7 22 31 70 54 105 23 35 47 78 54 97 12 33 28 37 28
6z"/>
<path d="M2770 3327 c0 -17 23 -37 81 -71 54 -31 69 -32 69 -8 0 11 -12 22
-32 30 -18 6 -45 23 -60 37 -29 27 -58 33 -58 12z"/>
<path d="M2350 3311 c0 -15 44 -52 127 -104 9 -5 16 -2 20 9 4 10 0 20 -10 25
-9 5 -35 24 -59 42 -58 44 -78 51 -78 28z"/>
<path d="M2759 3290 c-11 -7 -8 -15 16 -40 42 -44 64 -55 71 -35 4 10 -4 23
-20 36 -14 11 -32 27 -39 34 -9 8 -19 10 -28 5z"/>
<path d="M1925 3160 c-9 -15 13 -37 40 -42 25 -4 32 27 8 36 -10 3 -23 8 -30
12 -6 3 -14 0 -18 -6z"/>
<path d="M2170 2977 c0 -19 29 -57 45 -57 25 0 26 18 2 44 -26 28 -47 34 -47
13z"/>
<path d="M1727 2949 c13 -13 28 -19 38 -15 27 10 11 31 -26 34 l-34 3 22 -22z"/>
<path d="M1690 2926 c0 -18 22 -35 50 -38 35 -4 35 18 -1 36 -39 20 -49 20
-49 2z"/>
<path d="M2467 2913 c-4 -3 -7 -10 -7 -14 0 -13 100 -80 110 -74 20 12 8 31
-40 63 -55 35 -54 35 -63 25z"/>
<path d="M2920 2898 c1 -21 71 -61 84 -48 8 8 3 18 -19 36 -32 26 -65 32 -65
12z"/>
<path d="M1444 2719 c-12 -20 22 -40 79 -46 49 -5 57 -3 57 11 0 10 -9 16 -25
16 -14 0 -42 7 -62 15 -42 18 -40 18 -49 4z"/>
<path d="M1446 2653 c-14 -14 -4 -29 29 -47 19 -11 35 -23 35 -27 0 -4 -27
-13 -60 -20 -55 -11 -102 -32 -90 -41 20 -16 133 -78 146 -80 35 -6 23 21 -21
46 -25 15 -45 28 -45 30 0 2 32 12 70 21 75 18 90 30 69 49 -25 22 -127 75
-133 69z"/>
<path d="M1751 2601 c-22 -14 32 -58 92 -76 63 -19 73 -19 80 -1 7 19 -1 26
-32 26 -32 0 -111 35 -111 50 0 12 -10 13 -29 1z"/>
<path d="M2700 2559 c0 -15 59 -69 76 -69 22 0 16 19 -15 51 -30 29 -61 39
-61 18z"/>
<path d="M1730 2463 c-50 -19 -67 -86 -32 -129 21 -26 73 -54 102 -54 43 0 89
38 90 73 1 65 -97 133 -160 110z m90 -53 c22 -22 26 -60 8 -78 -31 -31 -108 2
-108 47 0 48 64 67 100 31z"/>
<path d="M2480 2331 c0 -16 49 -58 90 -76 35 -16 43 -16 50 -5 7 11 -4 21 -43
43 -29 15 -53 32 -55 37 -4 12 -42 13 -42 1z"/>
<path d="M2450 2285 c0 -24 37 -55 96 -81 63 -28 74 -29 74 -11 0 8 -19 22
-41 33 -23 10 -57 31 -77 46 -39 32 -52 35 -52 13z"/>
<path d="M2054 2244 c-27 -19 -59 -39 -71 -44 -13 -5 -23 -14 -23 -19 0 -17
37 -22 63 -10 37 17 77 -10 77 -50 0 -25 24 -50 36 -38 2 2 7 43 10 91 6 70 4
90 -7 97 -23 14 -33 11 -85 -27z m50 -39 c-4 -8 -10 -12 -15 -9 -14 8 -10 24
6 24 9 0 12 -6 9 -15z"/>
<path d="M1573 2223 c-7 -2 -13 -11 -13 -20 0 -21 44 -13 48 10 3 17 -10 21
-35 10z"/>
<path d="M1720 2208 c0 -9 21 -21 53 -31 32 -10 75 -36 112 -67 32 -27 62 -50
66 -50 43 0 -39 90 -116 129 -59 29 -115 39 -115 19z"/>
<path d="M2316 2074 c-7 -82 0 -114 24 -114 18 0 160 102 155 111 -11 16 -45
10 -88 -18 -23 -14 -44 -25 -47 -22 -3 2 -3 28 -1 58 3 50 -6 70 -30 71 -3 0
-9 -39 -13 -86z"/>
<path d="M1318 2003 c-153 -139 -236 -267 -308 -477 -24 -71 -25 -89 -4 -84
10 2 26 35 44 89 53 162 131 289 247 399 43 42 91 85 107 96 28 20 29 44 2 44
-7 0 -46 -30 -88 -67z"/>
<path d="M1576 1611 c-46 -77 -74 -140 -76 -171 0 -9 -29 -27 -68 -44 -93 -41
-342 -188 -342 -203 0 -27 23 -22 82 18 34 24 130 77 213 119 199 101 388 160
512 160 37 0 43 3 43 20 0 19 -4 20 -52 15 -90 -11 -210 -35 -276 -57 -35 -11
-66 -18 -69 -15 -8 8 51 130 83 172 24 32 27 65 6 65 -4 0 -30 -36 -56 -79z"/>
<path d="M3611 3266 c-12 -13 -40 -31 -62 -41 -36 -17 -48 -33 -33 -48 9 -9
78 28 119 65 27 23 33 33 23 39 -19 12 -22 11 -47 -15z"/>
<path d="M4002 3229 c-40 -29 -72 -56 -72 -60 0 -23 27 -17 75 15 68 47 92 73
79 86 -7 7 -34 -7 -82 -41z"/>
<path d="M3617 3205 c-35 -30 -42 -55 -16 -55 15 0 89 72 83 81 -10 16 -28 9
-67 -26z"/>
<path d="M4463 3098 c-26 -13 -31 -38 -7 -38 24 0 54 19 54 35 0 17 -16 18
-47 3z"/>
<path d="M4217 2912 c-18 -19 -24 -31 -17 -42 7 -12 13 -11 34 10 25 22 35 60
18 60 -5 0 -20 -12 -35 -28z"/>
<path d="M4663 2905 c-3 -9 -3 -19 1 -22 8 -9 56 14 56 27 0 16 -50 12 -57 -5z"/>
<path d="M4705 2879 c-5 -5 -18 -15 -27 -22 -12 -8 -15 -17 -9 -26 8 -12 13
-12 35 2 14 9 30 26 36 37 9 17 8 20 -7 20 -10 -1 -22 -5 -28 -11z"/>
<path d="M3925 2846 c-78 -54 -79 -56 -68 -67 13 -13 113 45 113 66 0 23 -14
24 -45 1z"/>
<path d="M3464 2841 c-38 -23 -48 -37 -33 -46 16 -11 79 27 79 47 0 23 -8 22
-46 -1z"/>
<path d="M4935 2660 c-11 -5 -35 -9 -52 -9 -27 -1 -33 -5 -33 -22 0 -20 4 -21
47 -15 48 6 93 29 93 46 0 12 -27 12 -55 0z"/>
<path d="M4622 2525 c-18 -13 -50 -26 -72 -30 -31 -5 -40 -11 -40 -26 0 -21
12 -20 88 3 34 10 92 53 92 69 0 16 -34 8 -68 -16z"/>
<path d="M3672 2484 c-28 -28 -33 -37 -22 -44 17 -11 78 37 79 63 1 27 -18 20
-57 -19z"/>
<path d="M3906 2271 c-9 -10 -34 -26 -56 -36 -22 -10 -40 -25 -40 -33 0 -38
130 30 138 72 5 22 -21 20 -42 -3z"/>
<path d="M3945 2229 c-16 -14 -54 -35 -82 -49 -36 -16 -53 -29 -53 -42 0 -25
13 -23 81 13 67 36 92 60 87 85 -3 15 -7 14 -33 -7z"/>
<path d="M4710 2206 c0 -16 37 -28 46 -15 8 14 -5 29 -27 29 -10 0 -19 -6 -19
-14z"/>
<path d="M4620 2201 c-48 -15 -93 -43 -142 -88 -38 -36 -46 -49 -37 -60 10
-11 21 -5 60 32 46 43 137 95 167 95 6 0 12 7 12 15 0 16 -20 18 -60 6z"/>
<path d="M5011 2006 c-10 -12 -4 -20 31 -44 54 -38 164 -151 210 -217 54 -77
85 -140 126 -256 24 -69 41 -104 50 -102 18 7 15 25 -14 111 -57 165 -145 304
-265 417 -93 88 -124 108 -138 91z"/>
<path d="M4785 1621 c-3 -5 6 -27 21 -48 36 -52 84 -149 84 -169 0 -9 -6 -13
-12 -10 -43 17 -182 56 -233 65 -109 18 -149 18 -153 0 -2 -14 9 -18 60 -24
208 -22 435 -108 665 -252 105 -65 123 -73 123 -49 0 19 -144 110 -288 181
-98 49 -121 64 -121 82 -1 12 -22 62 -47 110 -59 113 -82 140 -99 114z"/>
<path d="M3144 2503 c-86 -139 -184 -303 -184 -308 0 -3 115 -5 255 -5 l254 0
-66 108 c-137 222 -188 302 -193 302 -3 0 -32 -44 -66 -97z m129 -134 c31 -50
57 -95 57 -100 0 -5 -52 -9 -120 -9 -66 0 -120 3 -120 6 0 9 114 194 120 194
3 0 31 -41 63 -91z"/>
<path d="M3415 1994 c-49 -63 -112 -144 -140 -178 -27 -35 -86 -109 -130 -166
-44 -56 -104 -132 -134 -169 l-54 -66 247 -3 c135 -1 356 -1 491 0 l246 3 -48
77 c-27 43 -79 129 -116 190 -38 62 -96 158 -129 213 -95 156 -133 215 -138
215 -3 0 -45 -52 -95 -116z m116 -52 l21 -32 -52 0 c-52 0 -52 0 -38 23 8 12
18 28 22 35 11 19 24 11 47 -26z m22 -116 c43 -17 93 -76 108 -126 17 -57 -2
-113 -56 -167 -42 -42 -44 -43 -111 -43 -105 0 -149 34 -175 132 -36 136 104
259 234 204z m-301 -251 c6 -16 20 -42 30 -57 l19 -28 -28 -1 c-120 -6 -144
-6 -148 1 -2 4 21 40 53 81 44 57 58 69 60 54 2 -11 8 -33 14 -50z m525 -34
l31 -49 -60 -4 c-33 -1 -61 -2 -62 -1 -5 5 49 111 55 108 3 -2 19 -26 36 -54z"/>
<path d="M3423 1760 c-40 -24 -53 -48 -53 -100 0 -130 177 -168 225 -48 19 48
19 62 -1 104 -30 62 -109 82 -171 44z m103 -75 c15 -23 15 -27 0 -50 -19 -29
-42 -32 -68 -8 -22 20 -23 41 -1 65 23 25 50 23 69 -7z"/>
<path d="M2800 1933 c-52 -87 -122 -203 -155 -258 -113 -185 -155 -256 -155
-260 0 -3 80 -5 178 -5 l178 0 39 51 c79 102 91 118 195 249 58 73 123 156
145 185 22 29 56 73 76 97 20 23 44 55 54 71 l17 27 -239 0 -240 0 -93 -157z
m418 77 c-3 -9 -80 -108 -269 -347 -59 -73 -113 -142 -120 -153 -12 -16 -28
-19 -109 -21 -65 -2 -94 1 -93 9 2 6 24 46 50 89 120 199 166 274 213 351 l51
82 141 0 c84 0 138 -4 136 -10z"/>
</g>
</svg>
